# xmcd
#
# Track frame offsets: 
#        150
#        14487
#        28395
#        42636
#        56972
#        69827
#        82717
#        97496
#        112074
#        125179
#        141315
#        155162
#        169542
#        184852
#        203195
#        215400
#        231976
#        248866
#        262167
#        276679
#        290819
#        303632
#
# Disc length: 4271 seconds
#
# Revision: 0
# Processed by: cddbd v1.5.2PL0 Copyright (c) Steve Scherf et al.
# Submitted via: ExactAudioCopyFreeDBPlugin 1.0
#
DISCID=7210ad16
DTITLE=Count Basie - Down For The Count
DYEAR=1950
DGENRE=Blues
TTITLE0=Jive at Five
TTITLE1=Be My Guest
TTITLE2=Non Name
TTITLE3=Blues For The Count and Oscar
TTITLE4=Redhead
TTITLE5=Every Tub
TTITLE6=Goin' To Chicago
TTITLE7=Sent for You Yesterday and Here You Come Today
TTITLE8=Bread
TTITLE9=Terhe's a Small Hotel
TTITLE10=Tippin' On th Q T
TTITLE11=Blee Blop Blues
TTITLE12=Cherry Point
TTITLE13=Bubbles
TTITLE14=righ On
TTITLE15=The Blues Done Come Back
TTITLE16=Plymouth Rock
TTITLE17=I Feel Like a New Man
TTITLE18=You For Me
TTITLE19=Soft Drink
TTITLE20=Two for the Blues
TTITLE21=Slow But Sure
EXTD=
EXTT0=
EXTT1=
EXTT2=
EXTT3=
EXTT4=
EXTT5=
EXTT6=
EXTT7=
EXTT8=
EXTT9=
EXTT10=
EXTT11=
EXTT12=
EXTT13=
EXTT14=
EXTT15=
EXTT16=
EXTT17=
EXTT18=
EXTT19=
EXTT20=
EXTT21=
PLAYORDER=
